<?xml version="1.0" standalone="no"?>
<!DOCTYPE svg PUBLIC "-//W3C//DTD SVG 20010904//EN"
 "http://www.w3.org/TR/2001/REC-SVG-20010904/DTD/svg10.dtd">
<svg version="1.0" xmlns="http://www.w3.org/2000/svg"
 width="1080.000000pt" height="944.000000pt" viewBox="0 0 1080.000000 944.000000"
 preserveAspectRatio="xMidYMid meet">

<g transform="translate(0.000000,944.000000) scale(0.100000,-0.100000)"
fill="#000000" stroke="none">
<path d="M3167 7523 c-4 -3 -7 -1159 -7 -2568 l0 -2562 698 -6 c1035 -10 2803
-8 2908 3 187 20 339 92 467 224 106 109 177 256 192 399 l7 67 -684 0 -685 0
-99 -106 c-54 -58 -136 -144 -181 -192 l-82 -87 -193 193 -193 192 -723 0
-722 0 0 1853 c0 1186 -4 1881 -10 1933 -25 201 -84 328 -210 455 -72 74 -99
93 -180 132 -114 55 -280 93 -303 70z"/>
<path d="M5485 7276 c-225 -33 -457 -118 -652 -238 -479 -292 -793 -847 -793
-1398 0 -270 69 -527 206 -772 30 -54 58 -100 63 -102 7 -5 39 32 243 286 l77
96 -24 60 c-90 221 -105 501 -39 732 31 108 119 285 185 373 228 302 577 477
949 477 302 0 560 -103 796 -316 45 -41 84 -74 88 -74 5 0 195 232 209 257 4
7 -31 45 -90 98 -54 48 -100 92 -102 97 -2 5 16 29 39 53 26 26 39 48 35 55
-14 22 -159 112 -264 162 -126 61 -269 111 -399 138 -126 27 -397 35 -527 16z"/>
<path d="M7217 6993 c-469 -155 -434 -127 -294 -235 42 -33 77 -62 77 -64 0
-7 -85 -114 -351 -444 -144 -179 -307 -382 -363 -452 -55 -70 -104 -127 -108
-128 -5 0 -8 167 -8 370 l0 370 -22 1 c-13 0 -77 2 -143 4 -66 2 -144 1 -172
-2 l-53 -5 0 -899 0 -899 28 0 c59 0 231 51 325 96 l37 18 0 169 0 168 58 73
c31 40 111 140 177 221 66 81 134 165 150 186 17 21 122 151 235 290 113 138
269 331 348 428 79 97 149 180 156 185 9 6 41 -14 107 -67 59 -48 96 -71 100
-64 3 7 16 77 28 157 18 116 54 336 104 638 3 12 1 22 -2 21 -3 -1 -190 -62
-414 -136z"/>
<path d="M7063 5956 l-190 -235 -6 -118 c-7 -138 -26 -241 -69 -361 -124 -355
-447 -651 -816 -749 -141 -38 -355 -43 -502 -13 -173 35 -331 106 -478 214
-58 43 -74 67 -53 80 5 3 64 76 131 161 67 85 126 155 131 155 5 0 9 -82 9
-185 l0 -185 56 -25 c83 -37 211 -75 277 -82 l57 -6 0 624 c0 343 -3 634 -6
647 -6 22 -8 22 -195 22 l-189 0 0 -124 0 -125 -226 -278 c-125 -153 -248
-303 -274 -333 -137 -159 -340 -414 -340 -426 0 -16 128 -211 233 -354 167
-227 433 -556 655 -810 158 -181 419 -460 431 -460 14 0 445 471 632 690 384
450 633 805 804 1148 100 200 140 313 186 517 30 136 38 401 16 541 -15 93
-58 261 -76 291 -5 11 -62 -52 -198 -221z"/>
<path d="M6667 3732 c-86 -86 -157 -162 -157 -167 0 -6 72 -82 160 -170 l160
-159 45 44 45 44 -115 116 c-63 63 -115 120 -115 125 0 6 53 61 117 123 l117
112 -44 45 c-24 25 -47 45 -50 45 -3 0 -76 -71 -163 -158z"/>
<path d="M7082 3847 l-42 -43 120 -119 120 -119 -115 -117 c-63 -64 -115 -120
-115 -125 0 -6 18 -28 40 -49 l40 -39 165 164 165 165 -162 162 c-90 90 -165
163 -168 163 -3 0 -25 -19 -48 -43z"/>
</g>
</svg>
